<svg width="120" height="120" xmlns="http://www.w3.org/2000/svg">
 <g>
  <title>Layer 1</title>
  <path id="svg_5" d="m59,120c-33.14917,0 -60,-26.85083 -60,-60c0,-33.14917 26.85083,-60 60,-60c33.14917,0 60,26.85083 60,60c0,33.14917 -26.85083,60 -60,60z" opacity="undefined" stroke-width="0" stroke="#000" fill="#2616ce"/>
  <path transform="rotate(180 61 60.5)" stroke-width="0" stroke="#000" id="svg_9" d="m56.81789,79.35455l14.58646,-11.64546l-28.20221,0l-28.20214,0l0,-7.20908l0,-7.2091l27.87861,0c15.33321,0 27.87858,-0.36539 27.87858,-0.81198c0,-0.44658 -6.1041,-5.68704 -13.56465,-11.64545l-13.56471,-10.83348l12.53793,0l12.53789,0l19.14818,15.26461l19.14818,15.2646l-19.18491,15.2354l-19.1849,15.23539l-13.19939,0l-13.19942,0l14.58649,-11.64545l0.00001,0z" fill="#fff"/>
 </g>

</svg>